<?xml version="1.0" standalone="no"?>
<!DOCTYPE svg PUBLIC "-//W3C//DTD SVG 20010904//EN"
 "http://www.w3.org/TR/2001/REC-SVG-20010904/DTD/svg10.dtd">
<svg version="1.0" xmlns="http://www.w3.org/2000/svg"
 width="325.000000pt" height="306.000000pt" viewBox="0 0 325.000000 306.000000"
 preserveAspectRatio="xMidYMid meet">

<g transform="translate(0.000000,306.000000) scale(0.100000,-0.100000)"
fill="#000000" stroke="none">
<path d="M1430 2605 c-190 -39 -339 -123 -475 -267 -189 -200 -277 -476 -235
-737 90 -553 647 -891 1172 -710 495 170 741 734 524 1203 -122 266 -371 463
-646 512 -94 17 -255 16 -340 -1z m398 -119 c286 -88 501 -327 549 -613 42
-247 -38 -511 -207 -682 -132 -135 -225 -169 -292 -108 -67 59 -86 135 -62
248 17 77 18 79 47 79 16 0 70 -18 119 -40 110 -50 137 -56 163 -36 19 13 20
28 23 196 3 145 0 186 -11 204 -8 12 -57 45 -110 74 l-95 53 -4 107 c-4 97 -7
114 -40 184 -26 55 -54 94 -99 140 -61 60 -168 128 -204 128 -35 0 -125 -53
-188 -111 -107 -97 -153 -198 -161 -349 -3 -47 -5 -88 -5 -92 -1 -3 -35 -26
-78 -50 -42 -24 -89 -55 -105 -70 l-28 -26 0 -181 c0 -170 1 -182 21 -202 25
-25 39 -23 166 32 51 21 106 39 121 39 27 0 29 -3 40 -64 7 -35 12 -83 12
-107 -1 -116 -105 -213 -193 -180 -39 15 -126 81 -168 128 -162 179 -227 361
-216 598 8 162 48 277 144 412 109 153 309 279 496 313 93 16 272 5 365 -24z
m-164 -220 c65 -42 117 -104 147 -176 22 -52 24 -71 27 -307 l4 -253 -100 0
c-54 0 -160 -3 -235 -7 l-137 -6 0 250 c0 282 5 314 68 403 35 52 131 129 160
130 7 0 37 -15 66 -34z m-411 -560 c7 -19 -10 -38 -55 -64 l-38 -21 0 27 c0
21 9 32 38 49 44 26 48 27 55 9z m755 -8 c34 -19 42 -28 42 -50 l0 -27 -47 27
c-30 18 -49 36 -51 50 -4 28 3 27 56 0z m-456 -558 c42 -25 65 -25 107 1 38
23 44 20 60 -33 7 -20 31 -57 55 -83 43 -46 43 -46 20 -55 -12 -5 -61 -14
-108 -21 -87 -12 -218 -3 -277 20 l-27 10 42 44 c24 24 51 65 62 90 10 26 22
47 26 47 4 0 22 -9 40 -20z"/>
<path d="M1160 2265 c-25 -30 15 -70 45 -45 20 16 19 46 -1 54 -23 9 -30 8
-44 -9z"/>
<path d="M1991 2262 c-13 -25 8 -56 35 -50 29 5 27 62 -3 66 -13 2 -26 -4 -32
-16z"/>
<path d="M1047 2009 c-3 -11 -15 -23 -26 -26 -12 -3 -21 -13 -21 -23 0 -10 9
-20 21 -23 11 -3 23 -15 26 -26 7 -27 39 -27 46 0 3 11 15 23 26 26 23 6 29
43 7 43 -7 0 -21 11 -30 25 -20 30 -42 32 -49 4z"/>
<path d="M2115 2012 c-3 -11 -17 -24 -30 -30 -14 -6 -25 -16 -25 -22 0 -6 11
-16 25 -22 13 -6 27 -19 30 -30 7 -21 45 -25 45 -3 0 8 11 22 25 31 31 20 32
31 1 45 -13 6 -27 20 -29 30 -7 24 -34 25 -42 1z"/>
<path d="M913 1606 l-23 -23 25 -21 c14 -12 27 -22 30 -22 7 0 45 39 45 45 0
8 -40 45 -47 44 -5 -1 -18 -11 -30 -23z"/>
<path d="M2233 1606 l-21 -22 25 -22 c13 -12 27 -22 29 -22 6 0 44 39 44 45 0
8 -40 45 -47 44 -5 -1 -18 -11 -30 -23z"/>
<path d="M1167 1249 c-36 -21 -8 -77 32 -64 21 6 35 31 25 46 -11 18 -40 27
-57 18z"/>
<path d="M1995 1244 c-19 -20 -16 -43 8 -58 20 -13 50 2 55 26 3 16 -23 48
-38 48 -5 0 -16 -7 -25 -16z"/>
<path d="M1520 2028 c-65 -44 -90 -106 -76 -182 14 -76 110 -136 193 -120 46
9 108 65 124 111 24 73 -13 163 -81 198 -44 23 -121 19 -160 -7z m124 -104
c22 -21 20 -50 -4 -74 -24 -24 -47 -25 -72 -3 -20 18 -24 63 -6 81 17 17 64
15 82 -4z"/>
<path d="M230 569 c-50 -11 -90 -59 -90 -108 0 -65 34 -95 158 -141 42 -16 45
-55 6 -71 -32 -11 -61 -4 -90 23 -21 18 -24 19 -52 4 -42 -22 -45 -30 -22 -59
30 -38 99 -61 161 -54 86 10 119 45 119 124 0 47 -56 102 -124 123 -52 16 -73
37 -63 64 8 21 55 21 78 0 19 -17 51 -14 82 8 16 12 16 15 2 36 -31 43 -103
65 -165 51z"/>
<path d="M510 531 l0 -40 53 -3 52 -3 3 -157 3 -158 44 0 44 0 3 158 3 157 48
3 47 3 0 40 0 39 -150 0 -150 0 0 -39z"/>
<path d="M940 419 c0 -136 2 -155 22 -190 49 -88 205 -92 269 -6 23 31 24 39
24 187 l0 155 -42 3 -43 3 0 -139 c0 -118 -3 -143 -18 -161 -19 -25 -66 -30
-100 -12 -20 11 -22 19 -24 159 l-3 147 -42 3 -43 3 0 -152z"/>
<path d="M1400 369 l0 -201 123 4 c115 3 126 5 165 31 50 32 92 109 92 164 -1
81 -69 171 -147 192 -21 6 -82 11 -135 11 l-98 0 0 -201z m213 107 c43 -18 67
-46 74 -90 13 -81 -44 -136 -141 -136 l-56 0 0 113 c0 63 3 117 7 120 11 12
82 8 116 -7z"/>
<path d="M1890 565 c0 -3 32 -64 70 -134 67 -123 70 -132 70 -195 l0 -66 45 0
45 0 0 66 c0 64 3 73 70 196 39 71 70 131 70 134 0 2 -22 4 -48 4 l-48 0 -43
-75 c-23 -41 -46 -73 -51 -70 -5 3 -26 37 -47 75 l-38 70 -47 0 c-27 0 -48 -2
-48 -5z"/>
<path d="M2430 548 c-5 -13 -39 -102 -74 -198 -69 -190 -69 -197 -3 -185 26 5
38 15 48 38 14 31 16 32 86 35 l72 3 15 -36 c14 -33 18 -35 60 -35 26 0 46 2
46 5 0 2 -14 42 -31 87 -17 46 -46 128 -66 183 -19 55 -40 106 -45 113 -6 6
-30 12 -54 12 -37 0 -46 -4 -54 -22z m82 -172 c9 -24 14 -47 11 -50 -4 -3 -22
-6 -41 -6 -31 0 -34 2 -28 25 11 43 25 75 34 75 4 0 15 -20 24 -44z"/>
<path d="M2800 370 l0 -200 45 0 44 0 3 63 3 62 51 5 c87 9 137 58 137 136 0
92 -61 134 -195 134 l-88 0 0 -200z m181 110 c12 -7 19 -21 19 -40 0 -36 -36
-63 -77 -58 -25 3 -28 8 -31 42 -2 21 -1 44 2 52 6 16 59 19 87 4z"/>
</g>
</svg>
